PathFileType	4	(X/Y/Z)	Patient4_TMGait_0pt4_02_right_05.trc.trc
DataRate	CameraRate	NumFrames	NumMarkers	Units	OrigDataRate	OrigDataStartFrame	OrigNumFrames
71.428571428571	71.428571428571	5	33	mm	71.428571428571	18	       141
Frame#	Time	Sacral			L.Shoulder			Chest			R.Shoulder			Neck			R.ASIS			L.ASIS			R.Thigh.Superior			R.Thigh.Lateral			R.Thigh.Inferior			R.Patella			L.Thigh.Superior			L.Thigh.Lateral			L.Thigh.Inferior			L.Patella			L.Shank.Superior			L.Shank.Lateral			L.Shank.Inferior			R.Shank.Superior			R.Shank.Lateral			R.Shank.Inferior			R.Heel			R.Midfoot.Superior			R.Midfoot.Lateral			R.Toe			L.Heel			L.Midfoot.Lateral			L.Midfoot.Superior			L.Toe			L.Elbow			L.Wrist			R.Elbow			R.Wrist			
		X1	Y1	Z1	X2	Y2	Z2	X3	Y3	Z3	X4	Y4	Z4	X5	Y5	Z5	X6	Y6	Z6	X7	Y7	Z7	X8	Y8	Z8	X9	Y9	Z9	X10	Y10	Z10	X11	Y11	Z11	X12	Y12	Z12	X13	Y13	Z13	X14	Y14	Z14	X15	Y15	Z15	X16	Y16	Z16	X17	Y17	Z17	X18	Y18	Z18	X19	Y19	Z19	X20	Y20	Z20	X21	Y21	Z21	X22	Y22	Z22	X23	Y23	Z23	X24	Y24	Z24	X25	Y25	Z25	X26	Y26	Z26	X27	Y27	Z27	X28	Y28	Z28	X29	Y29	Z29	X30	Y30	Z30	X31	Y31	Z31	X32	Y32	Z32	X33	Y33	Z33	

18	6.218000000000	836.232383036947	1006.015391948826	418.571253963997	1058.307150951637	1423.673082334448	238.612605488206	1131.078912150786	1360.659378504440	416.788117499587	1023.577806689834	1443.931644322434	572.226169982993	1018.229000633730	1493.052761436222	389.764083601493	1052.307654366563	944.337133838609	561.394128802767	1066.895066862599	962.107739502266	283.694202289467	1116.057638094152	759.288421771626	541.813133048687	1062.023269834380	645.405408316454	618.294495198569	1149.936086507739	597.366217723596	542.417258883200	1178.363129717010	521.425798932495	562.064365316235	1078.347006595590	738.497628515241	313.700951030874	971.795006042612	635.414666083718	248.290910168632	1038.543528248338	547.185426741445	313.091216710328	1026.772516488043	480.848901193251	322.543250611707	996.892888002641	412.115495374802	314.871093725556	898.392221934640	303.254281108202	265.696838251631	942.018549610227	190.072504743371	340.024661412332	1168.391561573107	438.599235101384	576.895094461894	1124.640458700315	324.762819853759	646.157268752071	1201.880897269759	242.735992189053	598.922812652367	1125.216323990298	51.485555927734	577.765250970165	1285.735056374328	130.978051331721	616.432762747998	1210.464496317780	52.391137924644	649.943076630553	1411.305691001894	98.469100055169	638.961517024403	808.753912776310	39.080742976003	389.539730327635	879.535661371657	35.016365984614	306.072711097412	963.897543090567	95.367829950646	329.988263885948	1091.543371635817	42.817784292410	297.560314510304	1105.466715611117	1082.149927993665	105.597753145001	1286.857973802164	896.675012235561	152.853089746827	874.594283630482	1136.374593264692	690.917730414035	872.864101605601	878.556085918962	734.437994707905	
19	6.232000000000	837.040678011574	1005.130195036667	420.569539666946	1058.548397674155	1422.761729918206	240.657523422883	1131.058183856461	1360.235402170447	419.089893492328	1023.019267029747	1443.485320188982	574.199979371455	1018.097402366485	1492.335842291466	391.621730255680	1053.020261095287	943.330220813557	563.579328959631	1067.797807972347	961.698187432957	285.785656287950	1117.269192869491	758.389750139363	543.886742727150	1062.083192510129	643.481645052130	618.782354069341	1150.789400308380	596.157723620777	543.568016658118	1178.628161112470	519.635613225142	562.556914949967	1077.346870525592	737.485823291304	315.344999700594	969.667931413603	635.358080196841	249.641536782515	1035.498176662676	546.452036399738	314.197246124652	1023.221308042184	480.194387368750	323.426255420881	992.946018671116	411.756754018440	315.625063801198	893.763932189181	303.572151692731	266.313905495348	936.954329520404	189.934685048423	340.231096431092	1167.500189950509	436.144041881566	576.528336908199	1121.796913871411	322.724570439806	644.900270497185	1197.715002965570	239.850536237889	597.544173903673	1118.052885734230	50.590647737358	575.463580148992	1279.551696622676	126.872209723801	614.507262099557	1202.933265935704	50.178710629997	648.011951216097	1404.399259339360	92.425326246388	637.642424379440	803.125825381197	39.128259942138	389.523478949446	873.895963954971	35.041073684215	306.076454737203	958.275699592668	95.347248599039	330.024771852281	1085.879376915086	42.742004964458	297.566390767335	1106.648255221189	1080.524975583682	109.615944769613	1287.771520651321	894.679877524794	156.741236433439	873.849430878808	1135.830673975068	691.882672154723	873.195206382919	877.663309944266	734.045759005281	
20	6.246000000000	838.091629395026	1004.131947675547	422.884665101279	1058.632629835858	1421.931101303859	242.934536818301	1131.045288785371	1359.885448648154	421.548659968135	1022.507756317167	1442.957583816448	576.436067684921	1017.857104486933	1491.608644326083	393.764192496944	1054.169123564602	942.333439260204	565.805647157783	1068.740884464246	961.156282952673	287.957609282730	1119.110336373508	757.463815263548	545.902520923015	1062.709053732775	641.547933551259	619.159907321100	1152.126803069212	594.973188596531	544.550671449238	1179.260207965388	517.574766740431	562.824229749235	1076.551796935962	736.416041704078	316.978341268442	967.692967423722	635.275437805785	251.117759233628	1032.678354152383	545.684384748880	315.347935758333	1019.931799080918	479.467302047955	324.375646144102	989.184954864440	411.332960768132	316.462298900440	889.249392400263	303.914781996400	267.019652014441	931.946264502514	189.767065716723	340.467192882142	1166.564869781636	433.223734109035	575.933458500189	1118.257403651343	320.508834372811	643.460799002317	1192.227221645784	236.316839202066	595.886537973685	1108.385168982717	49.527405101463	573.160581634119	1271.206578881745	121.988264551946	612.200530273811	1192.972344905377	47.670557359070	646.033162303176	1395.264811345992	85.171244813931	635.958397622532	797.496385163143	39.161341153169	389.506365793398	868.258363203379	35.065132076031	306.087629402015	952.651361703946	95.335374927559	330.068424964563	1080.217779322682	42.654280788801	297.570466512827	1107.539997661649	1078.974157555981	113.815555367073	1288.205400763466	892.495023445002	160.549664891184	873.747053229445	1134.938687284885	693.299674355761	874.955135583359	876.392786247806	733.955360102389	
21	6.260000000000	839.370842352774	1003.037364566213	425.504254822785	1058.582309085354	1421.176906347997	245.445929735200	1131.068885989731	1359.595889572004	424.163080094121	1022.090482464204	1442.348046964890	578.939742118248	1017.543428914991	1490.874741469064	396.196123504563	1055.731084122934	941.350080900652	568.061644207684	1069.734770077954	960.493429846762	290.211068756240	1121.427727858338	756.435153356883	547.853317019092	1063.739455840070	639.625597864436	619.477325093128	1153.749921745578	593.782387555022	545.370668236364	1180.065703953223	515.310484368186	562.844162808569	1076.001666910955	735.299397775214	318.575781938620	965.906051118020	635.166735326140	252.721536667393	1030.133294112778	544.882936812735	316.539141296870	1016.959646034770	478.656811470142	325.392333658138	985.651575217831	410.835980216007	317.386664188719	884.875248122924	304.286440127162	267.822434388103	926.999806574482	189.564085770661	340.736348358450	1165.571570290822	429.986826074884	575.177125467591	1114.303781402735	318.180039498573	641.972094153204	1185.878979664143	232.371210293835	594.048971272196	1097.123045705409	48.322227771327	571.028031907424	1261.449458919526	116.765636836743	609.606514138915	1181.531456568600	45.084675999058	644.125481666872	1384.749156294084	77.415386183716	633.918539308882	791.864689270484	39.181829974015	389.486537050900	862.626291715822	35.085347512158	306.107669306736	947.029905031561	95.332329538672	330.117607600296	1074.567506899811	42.546482999416	297.569771547034	1108.146961718228	1077.507328076998	118.147446748593	1288.158477187944	890.143991720926	164.247319214750	874.257989189835	1133.744374156830	695.193882105997	878.093469523622	874.817108159458	734.231321297750	
22	6.274000000000	840.851092377618	1001.879049218064	428.404284490527	1058.425742074145	1420.503848760607	248.188610419213	1131.156864002173	1359.359784079390	426.928938972895	1021.814014550522	1441.670602009207	581.709112143056	1017.197670153190	1490.149728199480	398.915257823781	1057.658051029034	940.399944435679	570.345037109649	1070.794079490364	959.741851577177	292.554605189061	1124.061823194555	755.275991528583	549.738104613917	1065.034486276766	637.766198813487	619.796586688302	1155.485706527006	592.595985878197	546.044650219707	1180.891187024620	512.947554272350	562.635535729042	1075.732362724607	734.159256563465	320.138328194215	964.354157298678	635.035192561337	254.461088904279	1027.923098239330	544.054386578637	317.779231955654	1014.371996206119	477.755794683918	326.482879915813	982.397704208392	410.264886683552	318.403837607288	880.675180103620	304.698858627421	268.732686183594	922.126227493640	189.327149341325	341.042528418316	1164.539483541625	426.621321349238	574.352324147886	1110.244668628087	315.838701442692	640.579498237334	1179.160269555658	228.289102052094	592.155608082382	1085.194999605289	47.044775858733	569.208145638351	1251.047080919334	111.666445309970	606.876359056287	1169.554770354059	42.645204556305	642.403474989781	1373.697023908876	69.859214544319	631.614278253860	786.230040578024	39.202321433070	389.461307382144	857.004209119183	35.100962833364	306.137353586023	941.421416582697	95.338386576266	330.168176570535	1068.939531125286	42.409710790240	297.560458464836	1108.470682541722	1076.137374850747	122.568605788070	1287.625291967375	887.653811453537	167.800561771728	875.367002029944	1132.300125929535	697.575265161696	882.555115290504	873.021348033996	734.925264732787	
